<?xml version="1.0" standalone="no"?>
<!DOCTYPE svg PUBLIC "-//W3C//DTD SVG 20010904//EN"
 "http://www.w3.org/TR/2001/REC-SVG-20010904/DTD/svg10.dtd">
<svg version="1.0" xmlns="http://www.w3.org/2000/svg"
 width="313.000000pt" height="313.000000pt" viewBox="0 0 313.000000 313.000000"
 preserveAspectRatio="xMidYMid meet">

<g transform="translate(0.000000,313.000000) scale(0.100000,-0.100000)"
fill="#000000" stroke="none">
<path d="M1396 3120 c-742 -85 -1268 -605 -1386 -1370 -19 -126 1 -425 40
-577 148 -585 579 -1004 1165 -1133 487 -107 999 21 1376 343 369 315 573 820
530 1310 -35 396 -176 704 -450 978 -205 205 -409 324 -681 399 -172 47 -429
69 -594 50z m471 -565 c-4 -36 -3 -65 1 -65 4 0 48 14 99 32 75 27 96 31 120
22 26 -9 28 -13 28 -69 0 -72 -4 -72 152 -14 115 42 170 49 180 23 14 -37 -40
-79 -154 -120 -43 -15 -102 -36 -130 -46 l-53 -19 0 -64 c0 -43 4 -64 13 -68
8 -3 67 12 133 34 76 25 138 39 172 39 48 0 52 -2 52 -24 0 -51 -32 -71 -200
-126 l-160 -51 0 -90 c0 -49 2 -89 4 -89 2 0 70 16 150 35 208 50 251 45 244
-24 -4 -44 -38 -69 -119 -87 -35 -8 -111 -27 -169 -43 l-105 -28 1 -102 c1
-56 4 -104 7 -108 4 -3 85 6 180 20 227 34 267 25 267 -63 0 -21 -9 -41 -28
-59 -30 -30 -51 -34 -227 -46 -49 -4 -114 -13 -142 -21 l-53 -15 0 -120 c0
-117 -1 -122 -29 -163 -53 -76 -91 -102 -160 -110 -34 -4 -93 -4 -131 0 l-68
6 -11 -53 c-5 -30 -17 -115 -26 -189 -16 -133 -16 -135 -52 -172 -21 -22 -47
-38 -60 -38 -28 0 -59 33 -67 71 -6 29 8 208 24 309 4 30 5 58 2 61 -4 4 -53
10 -109 14 l-103 7 0 -39 c0 -46 -22 -151 -52 -251 -28 -97 -73 -135 -112 -96
-23 22 -20 77 11 236 15 75 24 141 19 145 -4 4 -40 9 -81 11 l-73 4 -10 -33
c-6 -19 -20 -74 -33 -124 -27 -111 -55 -174 -85 -187 -62 -29 -68 18 -24 189
42 160 43 153 -35 153 l-64 0 -21 -73 c-35 -123 -52 -160 -90 -201 -69 -74
-78 -24 -25 144 19 61 35 118 35 125 0 8 -17 16 -42 20 -72 12 -81 21 -74 71
3 24 17 70 30 104 27 67 32 62 -54 64 l-45 1 3 35 c4 48 21 61 89 69 l58 6 32
65 32 65 -61 3 -60 3 6 32 c8 38 27 55 75 62 20 4 43 10 50 14 26 13 51 55 58
94 l6 37 -47 0 c-34 0 -46 4 -46 15 0 18 35 55 53 55 31 0 83 21 93 38 6 10
15 32 18 49 l7 32 -33 -10 c-55 -15 -77 -12 -71 11 7 26 26 40 86 65 47 18 53
25 73 75 27 69 67 111 125 130 42 14 45 18 66 80 23 66 43 90 75 90 22 0 22 0
3 -36 -8 -16 -15 -40 -15 -53 0 -20 3 -22 27 -16 42 10 82 44 89 73 12 54 16
67 30 90 9 13 24 22 39 22 24 0 25 -1 18 -61 l-6 -61 44 22 c60 30 79 49 79
76 0 36 30 103 51 114 10 6 27 10 39 10 17 0 20 -4 15 -17 -12 -29 -18 -71
-11 -88 5 -13 17 -10 75 19 73 37 81 47 81 103 0 26 8 43 34 69 19 19 44 34
56 34 22 0 23 -3 17 -65z"/>
</g>
</svg>
