<svg width="160" height="36" viewBox="0 0 160 36" fill="none" xmlns="http://www.w3.org/2000/svg">
<g filter="url(#filter0_d_7_9)">
<path d="M9.508 6.696C9.772 7.536 10.288 8.316 11.056 9.036C11.824 9.756 12.724 10.476 13.756 11.196C14.812 11.892 15.892 12.648 16.996 13.464C18.124 14.28 19.18 15.216 20.164 16.272C21.172 17.328 21.988 18.564 22.612 19.98C22.468 20.916 22.12 21.864 21.568 22.824C21.016 23.76 20.356 24.612 19.588 25.38C18.82 26.148 18.028 26.748 17.212 27.18C16.348 27.324 15.352 27.42 14.224 27.468C13.096 27.54 11.92 27.516 10.696 27.396C9.496 27.276 8.332 27.036 7.204 26.676C6.868 26.412 6.472 26.016 6.016 25.488C5.56 24.96 5.164 24.468 4.828 24.012L5.404 18.468C5.86 18.324 6.388 18.228 6.988 18.18C7.612 18.132 8.164 18.18 8.644 18.324L8.968 23.004C9.928 23.148 10.972 23.196 12.1 23.148C13.252 23.1 14.38 22.968 15.484 22.752C16.612 22.512 17.584 22.176 18.4 21.744C17.92 20.784 17.236 19.908 16.348 19.116C15.46 18.3 14.476 17.52 13.396 16.776C12.34 16.008 11.284 15.228 10.228 14.436C9.172 13.644 8.212 12.804 7.348 11.916C6.508 11.028 5.872 10.032 5.44 8.928C5.608 7.992 5.896 7.068 6.304 6.156C6.736 5.22 7.228 4.38 7.78 3.636C8.356 2.868 8.92 2.292 9.472 1.908C12.952 0.923999 16.492 0.791999 20.092 1.512C20.332 1.656 20.572 1.908 20.812 2.268C21.052 2.604 21.28 2.964 21.496 3.348C21.736 3.732 21.928 4.032 22.072 4.248L21.532 9.144C21.076 9.312 20.56 9.396 19.984 9.396C19.432 9.396 18.88 9.336 18.328 9.216L18.004 5.328C17.188 5.256 16.276 5.256 15.268 5.328C14.26 5.376 13.252 5.508 12.244 5.724C11.236 5.94 10.324 6.264 9.508 6.696ZM39.0654 1.584C39.5214 1.92 40.0014 2.34 40.5054 2.844C41.0334 3.348 41.5254 3.864 41.9814 4.392C42.4374 4.92 42.7854 5.424 43.0254 5.904L42.4134 22.464C42.0774 22.944 41.6454 23.472 41.1174 24.048C40.5894 24.624 40.0254 25.176 39.4254 25.704C38.8254 26.208 38.2494 26.64 37.6974 27H31.0014C30.6174 26.952 30.1134 26.76 29.4894 26.424C28.8654 26.088 28.2174 25.68 27.5454 25.2C26.8734 24.696 26.2854 24.18 25.7814 23.652C25.2774 23.1 24.9534 22.608 24.8094 22.176L25.7814 6.084C26.0214 5.676 26.3574 5.196 26.7894 4.644C27.2454 4.068 27.7374 3.516 28.2654 2.988C28.7934 2.436 29.2734 1.98 29.7054 1.62C31.4574 1.284 33.1014 1.116 34.6374 1.116C36.1974 1.092 37.6734 1.248 39.0654 1.584ZM29.7414 23.292L37.8774 21.96C38.1174 20.856 38.3094 19.608 38.4534 18.216C38.6214 16.824 38.7174 15.384 38.7414 13.896C38.7894 12.384 38.7654 10.932 38.6694 9.54C38.5974 8.124 38.4414 6.864 38.2014 5.76C37.0254 5.496 35.7414 5.376 34.3494 5.4C32.9814 5.424 31.7094 5.616 30.5334 5.976C30.1734 7.152 29.8854 8.52 29.6694 10.08C29.4534 11.64 29.2974 13.248 29.2014 14.904C29.1294 16.536 29.1414 18.096 29.2374 19.584C29.3334 21.048 29.5014 22.284 29.7414 23.292ZM59.5505 1.26C60.1985 1.62 60.7985 2.076 61.3505 2.628C61.9265 3.18 62.4305 3.732 62.8625 4.284C63.2945 4.836 63.6185 5.316 63.8345 5.724L63.2585 13.644L59.4065 17.82L50.9465 18L51.0185 27.072L49.0025 27.576C48.3785 27.264 47.7425 26.844 47.0945 26.316C46.4465 25.764 45.9185 25.104 45.5105 24.336L47.2025 14.904L46.7705 1.8L47.8145 1.08C48.1505 1.128 48.6425 1.308 49.2905 1.62C49.9385 1.932 50.4785 2.256 50.9105 2.592C51.8465 2.112 52.8305 1.752 53.8625 1.512C54.9185 1.272 55.9385 1.128 56.9225 1.08C57.9065 1.032 58.7825 1.092 59.5505 1.26ZM59.0825 5.256C57.9785 5.064 56.6945 5.064 55.2305 5.256C53.7905 5.424 52.4465 5.784 51.1985 6.336L50.9465 14.76L58.9745 12.96C59.1425 11.64 59.2385 10.284 59.2625 8.892C59.2865 7.5 59.2265 6.288 59.0825 5.256ZM80.1279 1.584C80.5839 1.92 81.0639 2.34 81.5679 2.844C82.0959 3.348 82.5879 3.864 83.0439 4.392C83.4999 4.92 83.8479 5.424 84.0879 5.904L83.4759 22.464C83.1399 22.944 82.7079 23.472 82.1799 24.048C81.6519 24.624 81.0879 25.176 80.4879 25.704C79.8879 26.208 79.3119 26.64 78.7599 27H72.0639C71.6799 26.952 71.1759 26.76 70.5519 26.424C69.9279 26.088 69.2799 25.68 68.6079 25.2C67.9359 24.696 67.3479 24.18 66.8439 23.652C66.3399 23.1 66.0159 22.608 65.8719 22.176L66.8439 6.084C67.0839 5.676 67.4199 5.196 67.8519 4.644C68.3079 4.068 68.7999 3.516 69.3279 2.988C69.8559 2.436 70.3359 1.98 70.7679 1.62C72.5199 1.284 74.1639 1.116 75.6999 1.116C77.2599 1.092 78.7359 1.248 80.1279 1.584ZM70.8039 23.292L78.9399 21.96C79.1799 20.856 79.3719 19.608 79.5159 18.216C79.6839 16.824 79.7799 15.384 79.8039 13.896C79.8519 12.384 79.8279 10.932 79.7319 9.54C79.6599 8.124 79.5039 6.864 79.2639 5.76C78.0879 5.496 76.8039 5.376 75.4119 5.4C74.0439 5.424 72.7719 5.616 71.5959 5.976C71.2359 7.152 70.9479 8.52 70.7319 10.08C70.5159 11.64 70.3599 13.248 70.2639 14.904C70.1919 16.536 70.2039 18.096 70.2999 19.584C70.3959 21.048 70.5639 22.284 70.8039 23.292ZM100.325 16.344L105.509 26.064L103.745 27.576C103.073 27.456 102.317 27.192 101.477 26.784C100.637 26.376 99.905 25.86 99.281 25.236L96.977 16.812L91.685 16.992V25.884L88.913 27.576C87.905 27.216 87.125 26.676 86.573 25.956L87.977 14.904L87.545 1.8L88.589 1.08C88.925 1.128 89.405 1.308 90.029 1.62C90.677 1.932 91.217 2.256 91.649 2.592C92.633 2.112 93.665 1.752 94.745 1.512C95.849 1.272 96.905 1.128 97.913 1.08C98.945 1.032 99.845 1.092 100.613 1.26C101.261 1.62 101.873 2.076 102.449 2.628C103.025 3.18 103.529 3.744 103.961 4.32C104.417 4.872 104.753 5.352 104.969 5.76L104.501 12.96L100.325 16.344ZM100.181 5.256C99.437 5.136 98.585 5.1 97.625 5.148C96.665 5.172 95.693 5.28 94.709 5.472C93.749 5.664 92.837 5.952 91.973 6.336L91.757 13.68L100.145 11.88C100.289 10.68 100.361 9.504 100.361 8.352C100.385 7.176 100.325 6.144 100.181 5.256ZM127.684 6.084L119.584 5.292L119.26 15.372L119.368 27.072L117.352 27.576C116.728 27.264 116.092 26.844 115.444 26.316C114.796 25.764 114.268 25.104 113.86 24.336L115.552 14.904L115.264 5.472L109.576 6.336C108.976 5.952 108.46 5.556 108.028 5.148C107.596 4.74 107.14 4.224 106.66 3.6L107.344 1.512L117.712 1.8L125.452 1.224C126.22 1.752 126.832 2.244 127.288 2.7C127.744 3.132 128.128 3.576 128.44 4.032L127.684 6.084ZM135.325 27.072L133.237 27.576C132.613 27.264 131.977 26.844 131.329 26.316C130.681 25.764 130.153 25.104 129.745 24.336L131.509 14.904L131.077 1.8L132.121 1.08C132.385 1.128 132.745 1.26 133.201 1.476C133.681 1.692 134.149 1.932 134.605 2.196C135.061 2.46 135.397 2.712 135.613 2.952L135.289 15.372L135.325 27.072ZM143.402 23.22L154.49 20.988L155.39 22.824C155.006 23.568 154.466 24.324 153.77 25.092C153.074 25.836 152.402 26.472 151.754 27H144.698C144.314 26.952 143.798 26.76 143.15 26.424C142.526 26.088 141.878 25.68 141.206 25.2C140.534 24.696 139.946 24.18 139.442 23.652C138.938 23.1 138.614 22.608 138.47 22.176L139.442 6.048C139.682 5.64 140.018 5.16 140.45 4.608C140.906 4.032 141.398 3.48 141.926 2.952C142.454 2.4 142.934 1.944 143.366 1.584C145.118 1.248 146.87 1.08 148.622 1.08C150.398 1.08 152.162 1.344 153.914 1.872C154.25 2.184 154.586 2.592 154.922 3.096C155.258 3.576 155.522 4.008 155.714 4.392L155.21 9.684C154.802 9.828 154.262 9.912 153.59 9.936C152.918 9.936 152.342 9.888 151.862 9.792L151.358 5.292C150.182 5.196 148.97 5.184 147.722 5.256C146.498 5.304 145.334 5.496 144.23 5.832C143.87 6.984 143.57 8.34 143.33 9.9C143.114 11.46 142.97 13.08 142.898 14.76C142.826 16.416 142.826 17.988 142.898 19.476C142.994 20.964 143.162 22.212 143.402 23.22Z" fill="black"/>
<path d="M9.508 6.696L9.04011 5.81221L8.30442 6.20169L8.55401 6.99583L9.508 6.696ZM11.056 9.036L10.3721 9.76554L10.3721 9.76554L11.056 9.036ZM13.756 11.196L13.1838 12.0161L13.1947 12.0237L13.2057 12.031L13.756 11.196ZM16.996 13.464L16.4016 14.2682L16.4099 14.2742L16.996 13.464ZM20.164 16.272L19.4323 16.9538L19.4406 16.9625L20.164 16.272ZM22.612 19.98L23.6004 20.1321L23.6447 19.8437L23.5271 19.5767L22.612 19.98ZM21.568 22.824L22.4294 23.332L22.4349 23.3225L21.568 22.824ZM19.588 25.38L20.2951 26.0871L20.2951 26.0871L19.588 25.38ZM17.212 27.18L17.3764 28.1664L17.5365 28.1397L17.6799 28.0638L17.212 27.18ZM14.224 27.468L14.1815 26.4689L14.1709 26.4694L14.1603 26.47L14.224 27.468ZM10.696 27.396L10.5965 28.391L10.5984 28.3912L10.696 27.396ZM7.204 26.676L6.58618 27.4623L6.72806 27.5738L6.89996 27.6287L7.204 26.676ZM6.016 25.488L6.77282 24.8344L6.77282 24.8344L6.016 25.488ZM4.828 24.012L3.83335 23.9087L3.79336 24.2936L4.02294 24.6052L4.828 24.012ZM5.404 18.468L5.10287 17.5144L4.47716 17.712L4.40935 18.3647L5.404 18.468ZM6.988 18.18L6.9113 17.1829L6.90826 17.1832L6.988 18.18ZM8.644 18.324L9.64161 18.2549L9.59384 17.5649L8.93135 17.3662L8.644 18.324ZM8.968 23.004L7.97039 23.0731L8.02583 23.8739L8.81966 23.9929L8.968 23.004ZM12.1 23.148L12.0584 22.1489L12.0575 22.1489L12.1 23.148ZM15.484 22.752L15.676 23.7334L15.6841 23.7318L15.6921 23.7301L15.484 22.752ZM18.4 21.744L18.8679 22.6278L19.7314 22.1707L19.2944 21.2968L18.4 21.744ZM16.348 19.116L15.6714 19.8523L15.6768 19.8574L15.6824 19.8623L16.348 19.116ZM13.396 16.776L12.8078 17.5847L12.8182 17.5923L12.8287 17.5995L13.396 16.776ZM10.228 14.436L9.628 15.236L9.628 15.236L10.228 14.436ZM7.348 11.916L6.62146 12.6033L6.63127 12.6134L7.348 11.916ZM5.44 8.928L4.45573 8.75133L4.40583 9.02936L4.50876 9.2924L5.44 8.928ZM6.304 6.156L5.39598 5.73691L5.39118 5.74763L6.304 6.156ZM7.78 3.636L6.97999 3.03599L6.9769 3.04015L7.78 3.636ZM9.472 1.908L9.19991 0.945727L9.03857 0.991347L8.90094 1.08709L9.472 1.908ZM20.092 1.512L20.6065 0.654506L20.458 0.565389L20.2881 0.531419L20.092 1.512ZM20.812 2.268L19.9799 2.8227L19.9889 2.83612L19.9983 2.84924L20.812 2.268ZM21.496 3.348L20.6244 3.83826L20.6358 3.8584L20.648 3.878L21.496 3.348ZM22.072 4.248L23.066 4.35763L23.1059 3.99601L22.9041 3.6933L22.072 4.248ZM21.532 9.144L21.8777 10.0823L22.4582 9.86849L22.526 9.25363L21.532 9.144ZM18.328 9.216L17.3315 9.29904L17.3929 10.0361L18.1156 10.1932L18.328 9.216ZM18.004 5.328L19.0005 5.24495L18.9306 4.40587L18.0919 4.33187L18.004 5.328ZM15.268 5.328L15.3156 6.32687L15.3274 6.3263L15.3392 6.32546L15.268 5.328ZM8.55401 6.99583C8.8788 8.02926 9.50313 8.95091 10.3721 9.76554L11.7399 8.30646C11.0729 7.68108 10.6652 7.04274 10.462 6.39617L8.55401 6.99583ZM10.3721 9.76554C11.1811 10.524 12.1198 11.2738 13.1838 12.0161L14.3282 10.3759C13.3282 9.67822 12.4669 8.98802 11.7399 8.30646L10.3721 9.76554ZM13.2057 12.031C14.2455 12.7163 15.3108 13.4619 16.4016 14.2682L17.5904 12.6598C16.4732 11.8341 15.3785 11.0677 14.3063 10.361L13.2057 12.031ZM16.4099 14.2742C17.4834 15.0508 18.491 15.9434 19.4324 16.9537L20.8956 15.5903C19.869 14.4886 18.7646 13.5092 17.5821 12.6538L16.4099 14.2742ZM19.4406 16.9625C20.3639 17.9297 21.1169 19.067 21.6969 20.3833L23.5271 19.5767C22.8591 18.061 21.9801 16.7263 20.8874 15.5815L19.4406 16.9625ZM21.6236 19.8279C21.5013 20.6232 21.2018 21.4547 20.7011 22.3255L22.4349 23.3225C23.0382 22.2733 23.4347 21.2088 23.6004 20.1321L21.6236 19.8279ZM20.7066 22.316C20.1974 23.1794 19.5893 23.9645 18.8809 24.6729L20.2951 26.0871C21.1227 25.2595 21.8346 24.3406 22.4294 23.332L20.7066 22.316ZM18.8809 24.6729C18.1713 25.3825 17.4581 25.9182 16.7441 26.2962L17.6799 28.0638C18.5979 27.5778 19.4687 26.9135 20.2951 26.0871L18.8809 24.6729ZM17.0476 26.1936C16.2335 26.3293 15.2796 26.4222 14.1815 26.4689L14.2665 28.4671C15.4244 28.4178 16.4625 28.3187 17.3764 28.1664L17.0476 26.1936ZM14.1603 26.47C13.0905 26.5383 11.9686 26.516 10.7936 26.4008L10.5984 28.3912C11.8714 28.516 13.1015 28.5417 14.2877 28.466L14.1603 26.47ZM10.7955 26.401C9.66368 26.2878 8.5683 26.0617 7.50804 25.7233L6.89996 27.6287C8.0957 28.0103 9.32832 28.2642 10.5965 28.391L10.7955 26.401ZM7.82182 25.8897C7.5578 25.6822 7.2096 25.3401 6.77282 24.8344L5.25918 26.1416C5.7344 26.6919 6.1782 27.1418 6.58618 27.4623L7.82182 25.8897ZM6.77282 24.8344C6.32999 24.3216 5.95075 23.85 5.63306 23.4188L4.02294 24.6052C4.37725 25.086 4.79001 25.5984 5.25918 26.1416L6.77282 24.8344ZM5.82265 24.1153L6.39865 18.5713L4.40935 18.3647L3.83335 23.9087L5.82265 24.1153ZM5.70513 19.4216C6.07352 19.3052 6.52455 19.2203 7.06774 19.1768L6.90826 17.1832C6.25145 17.2357 5.64648 17.3427 5.10287 17.5144L5.70513 19.4216ZM7.0647 19.1771C7.59537 19.1362 8.01984 19.1808 8.35665 19.2818L8.93135 17.3662C8.30816 17.1792 7.62863 17.1278 6.9113 17.1829L7.0647 19.1771ZM7.64639 18.3931L7.97039 23.0731L9.96561 22.9349L9.64161 18.2549L7.64639 18.3931ZM8.81966 23.9929C9.85203 24.1478 10.9608 24.1974 12.1425 24.1471L12.0575 22.1489C10.9832 22.1946 10.004 22.1482 9.11634 22.0151L8.81966 23.9929ZM12.1416 24.1471C13.3429 24.0971 14.5212 23.9593 15.676 23.7334L15.292 21.7706C14.2388 21.9767 13.1611 22.1029 12.0584 22.1489L12.1416 24.1471ZM15.6921 23.7301C16.8892 23.4754 17.9527 23.1123 18.8679 22.6278L17.9321 20.8602C17.2153 21.2397 16.3348 21.5486 15.2759 21.7739L15.6921 23.7301ZM19.2944 21.2968C18.7519 20.2118 17.9859 19.2369 17.0136 18.3697L15.6824 19.8623C16.4861 20.5791 17.0881 21.3562 17.5056 22.1912L19.2944 21.2968ZM17.0246 18.3797C16.0994 17.5295 15.0784 16.7207 13.9633 15.9525L12.8287 17.5995C13.8736 18.3193 14.8206 19.0705 15.6714 19.8523L17.0246 18.3797ZM13.9842 15.9673C12.9322 15.2022 11.8801 14.4251 10.828 13.636L9.628 15.236C10.6879 16.0309 11.7478 16.8138 12.8078 17.5847L13.9842 15.9673ZM10.828 13.636C9.81083 12.8731 8.89027 12.0671 8.06473 11.2186L6.63127 12.6134C7.53373 13.5409 8.53317 14.4149 9.628 15.236L10.828 13.636ZM8.07447 11.2288C7.32005 10.4313 6.75491 9.54409 6.37124 8.5636L4.50876 9.2924C4.98909 10.5199 5.69595 11.6247 6.62153 12.6032L8.07447 11.2288ZM6.42427 9.10466C6.57723 8.25245 6.84027 7.40606 7.21682 6.56436L5.39118 5.74763C4.95173 6.72994 4.63877 7.73155 4.45573 8.75133L6.42427 9.10466ZM7.21196 6.57506C7.61835 5.69454 8.07632 4.9149 8.5831 4.23184L6.9769 3.04015C6.37968 3.8451 5.85365 4.74546 5.39604 5.73694L7.21196 6.57506ZM8.58 4.236C9.11698 3.52003 9.60736 3.032 10.0431 2.7289L8.90094 1.08709C8.23264 1.55199 7.59502 2.21597 6.98 3.036L8.58 4.236ZM9.74409 2.87027C13.0693 1.93004 16.4488 1.80315 19.8959 2.49258L20.2881 0.531419C16.5352 -0.219155 12.8347 -0.0820442 9.19991 0.945727L9.74409 2.87027ZM19.5775 2.36949C19.6402 2.40708 19.7817 2.52527 19.9799 2.8227L21.6441 1.7133C21.3623 1.29073 21.0238 0.904917 20.6065 0.654506L19.5775 2.36949ZM19.9983 2.84924C20.216 3.1541 20.4249 3.48353 20.6244 3.83826L22.3676 2.85774C22.1351 2.44446 21.888 2.05389 21.6257 1.68676L19.9983 2.84924ZM20.648 3.878C20.89 4.26519 21.088 4.57472 21.24 4.8027L22.9041 3.6933C22.768 3.48928 22.582 3.19881 22.344 2.818L20.648 3.878ZM21.078 4.13837L20.538 9.03437L22.526 9.25363L23.066 4.35763L21.078 4.13837ZM21.1863 8.20566C20.8594 8.32609 20.4634 8.396 19.984 8.396V10.396C20.6566 10.396 21.2926 10.2979 21.8777 10.0823L21.1863 8.20566ZM19.984 8.396C19.5051 8.396 19.0243 8.34401 18.5404 8.23882L18.1156 10.1932C18.7357 10.328 19.3589 10.396 19.984 10.396V8.396ZM19.3245 9.13295L19.0005 5.24495L17.0075 5.41104L17.3315 9.29904L19.3245 9.13295ZM18.0919 4.33187C17.2124 4.25427 16.246 4.25559 15.1968 4.33054L15.3392 6.32546C16.306 6.25641 17.1636 6.25773 17.9161 6.32413L18.0919 4.33187ZM15.2204 4.32913C14.1568 4.37978 13.0946 4.51902 12.0345 4.7462L12.4535 6.7018C13.4094 6.49698 14.3632 6.37222 15.3156 6.32687L15.2204 4.32913ZM12.0345 4.7462C10.9468 4.97928 9.94633 5.33245 9.04011 5.81221L9.97589 7.57979C10.7017 7.19555 11.5252 6.90072 12.4535 6.7018L12.0345 4.7462ZM39.0654 1.584L39.6586 0.778943L39.4962 0.659258L39.3 0.611917L39.0654 1.584ZM40.5054 2.844L39.7983 3.55111L39.8065 3.55933L39.8149 3.56736L40.5054 2.844ZM41.9814 4.392L42.7382 3.73838L42.7382 3.73838L41.9814 4.392ZM43.0254 5.904L44.0247 5.94093L44.0342 5.68545L43.9198 5.45679L43.0254 5.904ZM42.4134 22.464L43.2326 23.0375L43.4018 22.7958L43.4127 22.5009L42.4134 22.464ZM41.1174 24.048L41.8546 24.7237L41.8546 24.7237L41.1174 24.048ZM39.4254 25.704L40.0686 26.4697L40.0774 26.4623L40.086 26.4547L39.4254 25.704ZM37.6974 27V28H37.9947L38.2437 27.8376L37.6974 27ZM31.0014 27L30.8774 27.9923L30.9391 28H31.0014V27ZM29.4894 26.424L29.9635 25.5435L29.9635 25.5435L29.4894 26.424ZM27.5454 25.2L26.9454 26L26.9547 26.007L26.9642 26.0137L27.5454 25.2ZM25.7814 23.652L25.0429 24.3263L25.0504 24.3345L25.0581 24.3425L25.7814 23.652ZM24.8094 22.176L23.8112 22.1157L23.7996 22.3088L23.8607 22.4922L24.8094 22.176ZM25.7814 6.084L24.9195 5.57698L24.7977 5.78398L24.7832 6.02371L25.7814 6.084ZM26.7894 4.644L26.0053 4.02329L26.0019 4.02769L26.7894 4.644ZM28.2654 2.988L28.9725 3.6951L28.9804 3.68725L28.988 3.67922L28.2654 2.988ZM29.7054 1.62L29.5171 0.637896L29.2635 0.686517L29.0652 0.851777L29.7054 1.62ZM34.6374 1.116V2.116H34.6451L34.6528 2.11588L34.6374 1.116ZM29.7414 23.292L28.7686 23.5236L28.9842 24.4293L29.903 24.2789L29.7414 23.292ZM37.8774 21.96L38.039 22.9469L38.7101 22.837L38.8546 22.1724L37.8774 21.96ZM38.4534 18.216L37.4606 18.0962L37.4596 18.1046L37.4587 18.1131L38.4534 18.216ZM38.7414 13.896L37.7419 13.8643L37.7417 13.8721L37.7415 13.8799L38.7414 13.896ZM38.6694 9.54L37.6707 9.59078L37.6712 9.5998L37.6718 9.6088L38.6694 9.54ZM38.2014 5.76L39.1786 5.54757L39.043 4.92405L38.4204 4.78428L38.2014 5.76ZM34.3494 5.4L34.3322 4.40015L34.3319 4.40015L34.3494 5.4ZM30.5334 5.976L30.2407 5.0198L29.7327 5.1753L29.5772 5.68328L30.5334 5.976ZM29.2014 14.904L28.203 14.8461L28.2024 14.8599L29.2014 14.904ZM29.2374 19.584L28.2395 19.6484L28.2395 19.6494L29.2374 19.584ZM38.4722 2.38905C38.8791 2.68886 39.3211 3.07395 39.7983 3.55111L41.2125 2.13689C40.6817 1.60605 40.1637 1.15113 39.6586 0.778943L38.4722 2.38905ZM39.8149 3.56736C40.3208 4.0502 40.7905 4.543 41.2246 5.04562L42.7382 3.73838C42.2603 3.18499 41.746 2.64579 41.1959 2.12064L39.8149 3.56736ZM41.2246 5.04562C41.6416 5.52845 41.9373 5.96377 42.131 6.35121L43.9198 5.45679C43.6336 4.88422 43.2332 4.31154 42.7382 3.73838L41.2246 5.04562ZM42.0261 5.86707L41.4141 22.4271L43.4127 22.5009L44.0247 5.94093L42.0261 5.86707ZM41.5942 21.8905C41.29 22.3251 40.8878 22.8186 40.3803 23.3723L41.8546 24.7237C42.403 24.1254 42.8649 23.5629 43.2326 23.0375L41.5942 21.8905ZM40.3803 23.3723C39.8769 23.9213 39.3386 24.4484 38.7648 24.9533L40.086 26.4547C40.7123 25.9036 41.3019 25.3267 41.8546 24.7237L40.3803 23.3723ZM38.7822 24.9383C38.2075 25.4211 37.6638 25.828 37.1511 26.1624L38.2437 27.8376C38.835 27.452 39.4433 26.9949 40.0686 26.4697L38.7822 24.9383ZM37.6974 26H31.0014V28H37.6974V26ZM31.1254 26.0077C30.927 25.9829 30.5538 25.8614 29.9635 25.5435L29.0153 27.3045C29.673 27.6586 30.3078 27.9211 30.8774 27.9923L31.1254 26.0077ZM29.9635 25.5435C29.382 25.2304 28.7698 24.8457 28.1266 24.3863L26.9642 26.0137C27.665 26.5143 28.3488 26.9456 29.0153 27.3045L29.9635 25.5435ZM28.1454 24.4C27.511 23.9242 26.9656 23.4443 26.5048 22.9615L25.0581 24.3425C25.6053 24.9157 26.2358 25.4678 26.9454 26L28.1454 24.4ZM26.5199 22.9777C26.0572 22.471 25.8384 22.1006 25.7581 21.8598L23.8607 22.4922C24.0685 23.1154 24.4976 23.729 25.0429 24.3263L26.5199 22.9777ZM25.8076 22.2363L26.7796 6.14429L24.7832 6.02371L23.8112 22.1157L25.8076 22.2363ZM26.6433 6.59102C26.8531 6.23441 27.1605 5.79238 27.5769 5.26031L26.0019 4.02769C25.5543 4.59962 25.1897 5.11759 24.9195 5.57698L26.6433 6.59102ZM27.5735 5.2647C28.0051 4.71946 28.4714 4.19626 28.9725 3.6951L27.5583 2.28089C27.0035 2.83574 26.4857 3.41654 26.0054 4.0233L27.5735 5.2647ZM28.988 3.67922C29.4986 3.1455 29.9506 2.71734 30.3456 2.38822L29.0652 0.851777C28.5962 1.24265 28.0883 1.72649 27.5428 2.29678L28.988 3.67922ZM29.8938 2.6021C31.5934 2.27615 33.1738 2.116 34.6374 2.116V0.115999C33.0291 0.115999 31.3215 0.291848 29.5171 0.637896L29.8938 2.6021ZM34.6528 2.11588C36.1361 2.09306 37.5276 2.24151 38.8308 2.55608L39.3 0.611917C37.8193 0.254486 36.2587 0.0909368 34.622 0.116117L34.6528 2.11588ZM29.903 24.2789L38.039 22.9469L37.7158 20.9731L29.5798 22.3051L29.903 24.2789ZM38.8546 22.1724C39.104 21.025 39.3011 19.7394 39.4481 18.3189L37.4587 18.1131C37.3177 19.4766 37.1308 20.687 36.9002 21.7476L38.8546 22.1724ZM39.4462 18.3358C39.6186 16.9074 39.7168 15.4327 39.7413 13.9121L37.7415 13.8799C37.7181 15.3353 37.6242 16.7406 37.4606 18.0962L39.4462 18.3358ZM39.7409 13.9277C39.7899 12.385 39.7655 10.8993 39.667 9.4712L37.6718 9.6088C37.7653 10.9647 37.7889 12.383 37.7419 13.8643L39.7409 13.9277ZM39.6681 9.48922C39.594 8.03189 39.4326 6.71618 39.1786 5.54757L37.2242 5.97243C37.4502 7.01181 37.6008 8.2161 37.6707 9.59078L39.6681 9.48922ZM38.4204 4.78428C37.1561 4.50044 35.7916 4.37498 34.3322 4.40015L34.3666 6.39985C35.6912 6.37701 36.8948 6.49156 37.9824 6.73572L38.4204 4.78428ZM34.3319 4.40015C32.8809 4.42561 31.5153 4.62961 30.2407 5.0198L30.8261 6.9322C31.9035 6.60239 33.0819 6.42239 34.3669 6.39985L34.3319 4.40015ZM29.5772 5.68328C29.198 6.92194 28.9002 8.34399 28.6789 9.94285L30.66 10.2172C30.8706 8.69601 31.1488 7.38206 31.4896 6.26871L29.5772 5.68328ZM28.6789 9.94285C28.459 11.5305 28.3005 13.165 28.2031 14.8461L30.1997 14.9619C30.2943 13.331 30.4478 11.7495 30.66 10.2172L28.6789 9.94285ZM28.2024 14.8599C28.1289 16.5247 28.1409 18.1211 28.2395 19.6484L30.2353 19.5196C30.1419 18.0709 30.1299 16.5473 30.2004 14.9481L28.2024 14.8599ZM28.2395 19.6494C28.3378 21.1484 28.5115 22.4438 28.7686 23.5236L30.7142 23.0604C30.4913 22.1242 30.329 20.9476 30.2353 19.5186L28.2395 19.6494ZM59.5505 1.26L60.0362 0.385841L59.9077 0.314494L59.7642 0.283099L59.5505 1.26ZM61.3505 2.628L60.6434 3.33511L60.6509 3.34263L60.6586 3.34999L61.3505 2.628ZM62.8625 4.284L62.075 4.90031L62.075 4.90031L62.8625 4.284ZM63.8345 5.724L64.8319 5.79653L64.8527 5.51001L64.7183 5.25611L63.8345 5.724ZM63.2585 13.644L63.9936 14.322L64.2305 14.0651L64.2559 13.7165L63.2585 13.644ZM59.4065 17.82L59.4278 18.8198L59.8531 18.8107L60.1416 18.498L59.4065 17.82ZM50.9465 18L50.9253 17.0002L49.9387 17.0212L49.9466 18.0079L50.9465 18ZM51.0185 27.072L51.2611 28.0421L52.0247 27.8512L52.0185 27.0641L51.0185 27.072ZM49.0025 27.576L48.5553 28.4704L48.8862 28.6359L49.2451 28.5461L49.0025 27.576ZM47.0945 26.316L46.4461 27.0772L46.4544 27.0843L46.4629 27.0912L47.0945 26.316ZM45.5105 24.336L44.5262 24.1594L44.4652 24.4998L44.6274 24.8052L45.5105 24.336ZM47.2025 14.904L48.1868 15.0806L48.2055 14.9766L48.202 14.871L47.2025 14.904ZM46.7705 1.8L46.2028 0.976785L45.7531 1.28694L45.7711 1.83295L46.7705 1.8ZM47.8145 1.08L47.956 0.0900492L47.5688 0.0347381L47.2468 0.256786L47.8145 1.08ZM49.2905 1.62L49.7243 0.718997L49.7243 0.718997L49.2905 1.62ZM50.9105 2.592L50.2966 3.38135L50.7997 3.77266L51.3668 3.48182L50.9105 2.592ZM53.8625 1.512L53.6409 0.536855L53.636 0.537992L53.8625 1.512ZM56.9225 1.08L56.9713 2.07881L56.9713 2.07881L56.9225 1.08ZM59.0825 5.256L60.0729 5.1178L59.9722 4.39571L59.2539 4.27079L59.0825 5.256ZM55.2305 5.256L55.3464 6.24926L55.3535 6.24844L55.3606 6.24751L55.2305 5.256ZM51.1985 6.336L50.794 5.42146L50.2178 5.67633L50.199 6.3061L51.1985 6.336ZM50.9465 14.76L49.947 14.7301L49.9085 16.0176L51.1653 15.7358L50.9465 14.76ZM58.9745 12.96L59.1933 13.9358L59.8779 13.7823L59.9665 13.0863L58.9745 12.96ZM59.2625 8.892L58.2627 8.87476L58.2627 8.87476L59.2625 8.892ZM59.0649 2.13416C59.6275 2.44669 60.1536 2.84531 60.6434 3.33511L62.0576 1.92089C61.4434 1.30668 60.7696 0.793303 60.0362 0.385841L59.0649 2.13416ZM60.6586 3.34999C61.2049 3.87349 61.676 4.39046 62.075 4.90031L63.65 3.66769C63.185 3.07353 62.6482 2.48651 62.0424 1.90601L60.6586 3.34999ZM62.075 4.90031C62.4872 5.42702 62.7727 5.8555 62.9507 6.19189L64.7183 5.25611C64.4644 4.77649 64.1018 4.24497 63.65 3.66769L62.075 4.90031ZM62.8372 5.65146L62.2612 13.5715L64.2559 13.7165L64.8319 5.79653L62.8372 5.65146ZM62.5235 12.966L58.6715 17.142L60.1416 18.498L63.9936 14.322L62.5235 12.966ZM59.3853 16.8202L50.9253 17.0002L50.9678 18.9998L59.4278 18.8198L59.3853 16.8202ZM49.9466 18.0079L50.0186 27.0799L52.0185 27.0641L51.9465 17.9921L49.9466 18.0079ZM50.776 26.1019L48.76 26.6059L49.2451 28.5461L51.2611 28.0421L50.776 26.1019ZM49.4497 26.6816C48.9028 26.4081 48.3281 26.0312 47.7262 25.5408L46.4629 27.0912C47.157 27.6568 47.8542 28.1199 48.5553 28.4704L49.4497 26.6816ZM47.743 25.5548C47.193 25.0863 46.7438 24.526 46.3936 23.8668L44.6274 24.8052C45.0932 25.682 45.7 26.4417 46.4461 27.0772L47.743 25.5548ZM46.4948 24.5126L48.1868 15.0806L46.2182 14.7274L44.5262 24.1594L46.4948 24.5126ZM48.202 14.871L47.77 1.76705L45.7711 1.83295L46.2031 14.9369L48.202 14.871ZM47.3383 2.62321L48.3823 1.90321L47.2468 0.256786L46.2028 0.976785L47.3383 2.62321ZM47.6731 2.06995C47.8469 2.09478 48.2216 2.21523 48.8567 2.521L49.7243 0.718997C49.0634 0.400771 48.4541 0.161215 47.956 0.0900492L47.6731 2.06995ZM48.8567 2.521C49.4595 2.81125 49.9348 3.09994 50.2966 3.38135L51.5245 1.80265C51.0223 1.41206 50.4175 1.05274 49.7243 0.718997L48.8567 2.521ZM51.3668 3.48182C52.2295 3.03946 53.1362 2.7076 54.089 2.48601L53.636 0.537992C52.5248 0.796404 51.4636 1.18454 50.4542 1.70218L51.3668 3.48182ZM54.0842 2.48713C55.0889 2.25879 56.0509 2.12371 56.9713 2.07881L56.8738 0.0811866C55.8262 0.132289 54.7482 0.285207 53.6409 0.536867L54.0842 2.48713ZM56.9713 2.07881C57.8884 2.03407 58.6735 2.09179 59.3368 2.2369L59.7642 0.283099C58.8916 0.0922104 57.9247 0.0299231 56.8738 0.0811867L56.9713 2.07881ZM59.2539 4.27079C58.0245 4.05697 56.6348 4.06326 55.1005 4.26449L55.3606 6.24751C56.7542 6.06473 57.9326 6.07102 58.9112 6.24121L59.2539 4.27079ZM55.1147 4.26274C53.5813 4.44163 52.1393 4.82644 50.794 5.42146L51.603 7.25054C52.7538 6.74156 53.9998 6.40637 55.3464 6.24926L55.1147 4.26274ZM50.199 6.3061L49.947 14.7301L51.9461 14.7899L52.1981 6.3659L50.199 6.3061ZM51.1653 15.7358L59.1933 13.9358L58.7557 11.9842L50.7277 13.7842L51.1653 15.7358ZM59.9665 13.0863C60.1393 11.7285 60.2378 10.336 60.2624 8.90924L58.2627 8.87476C58.2393 10.232 58.1457 11.5515 57.9825 12.8337L59.9665 13.0863ZM60.2624 8.90924C60.287 7.48136 60.226 6.2151 60.0729 5.1178L58.0921 5.3942C58.227 6.3609 58.2861 7.51863 58.2627 8.87476L60.2624 8.90924ZM80.1279 1.584L80.7211 0.778943L80.5587 0.659258L80.3625 0.611917L80.1279 1.584ZM81.5679 2.844L80.8608 3.55111L80.869 3.55933L80.8774 3.56736L81.5679 2.844ZM83.0439 4.392L83.8007 3.73838L83.8007 3.73838L83.0439 4.392ZM84.0879 5.904L85.0872 5.94093L85.0967 5.68545L84.9823 5.45679L84.0879 5.904ZM83.4759 22.464L84.2951 23.0375L84.4643 22.7958L84.4752 22.5009L83.4759 22.464ZM82.1799 24.048L82.9171 24.7237L82.9171 24.7237L82.1799 24.048ZM80.4879 25.704L81.1311 26.4697L81.1399 26.4623L81.1485 26.4547L80.4879 25.704ZM78.7599 27V28H79.0572L79.3062 27.8376L78.7599 27ZM72.0639 27L71.9399 27.9923L72.0016 28H72.0639V27ZM70.5519 26.424L71.026 25.5435L71.026 25.5435L70.5519 26.424ZM68.6079 25.2L68.0079 26L68.0172 26.007L68.0267 26.0137L68.6079 25.2ZM66.8439 23.652L66.1054 24.3263L66.1129 24.3345L66.1206 24.3425L66.8439 23.652ZM65.8719 22.176L64.8737 22.1157L64.8621 22.3088L64.9232 22.4922L65.8719 22.176ZM66.8439 6.084L65.982 5.57698L65.8602 5.78398L65.8457 6.02371L66.8439 6.084ZM67.8519 4.644L67.0678 4.02329L67.0644 4.02769L67.8519 4.644ZM69.3279 2.988L70.035 3.6951L70.0429 3.68725L70.0505 3.67922L69.3279 2.988ZM70.7679 1.62L70.5796 0.637896L70.326 0.686517L70.1277 0.851777L70.7679 1.62ZM75.6999 1.116V2.116H75.7076L75.7153 2.11588L75.6999 1.116ZM70.8039 23.292L69.8311 23.5236L70.0467 24.4293L70.9655 24.2789L70.8039 23.292ZM78.9399 21.96L79.1015 22.9469L79.7726 22.837L79.9171 22.1724L78.9399 21.96ZM79.5159 18.216L78.5231 18.0962L78.5221 18.1046L78.5212 18.1131L79.5159 18.216ZM79.8039 13.896L78.8044 13.8643L78.8042 13.8721L78.804 13.8799L79.8039 13.896ZM79.7319 9.54L78.7332 9.59078L78.7337 9.5998L78.7343 9.6088L79.7319 9.54ZM79.2639 5.76L80.2411 5.54757L80.1055 4.92405L79.4829 4.78428L79.2639 5.76ZM75.4119 5.4L75.3947 4.40015L75.3944 4.40015L75.4119 5.4ZM71.5959 5.976L71.3032 5.0198L70.7952 5.1753L70.6397 5.68328L71.5959 5.976ZM70.2639 14.904L69.2655 14.8461L69.2649 14.8599L70.2639 14.904ZM70.2999 19.584L69.302 19.6484L69.302 19.6494L70.2999 19.584ZM79.5347 2.38905C79.9416 2.68886 80.3836 3.07395 80.8608 3.55111L82.275 2.13689C81.7442 1.60605 81.2262 1.15113 80.7211 0.778943L79.5347 2.38905ZM80.8774 3.56736C81.3833 4.0502 81.853 4.543 82.2871 5.04562L83.8007 3.73838C83.3228 3.18499 82.8085 2.64579 82.2584 2.12064L80.8774 3.56736ZM82.2871 5.04562C82.7041 5.52845 82.9998 5.96377 83.1935 6.35121L84.9823 5.45679C84.6961 4.88422 84.2957 4.31154 83.8007 3.73838L82.2871 5.04562ZM83.0886 5.86707L82.4766 22.4271L84.4752 22.5009L85.0872 5.94093L83.0886 5.86707ZM82.6567 21.8905C82.3525 22.3251 81.9503 22.8186 81.4428 23.3723L82.9171 24.7237C83.4655 24.1254 83.9274 23.5629 84.2951 23.0375L82.6567 21.8905ZM81.4428 23.3723C80.9394 23.9213 80.4011 24.4484 79.8273 24.9533L81.1485 26.4547C81.7748 25.9036 82.3644 25.3267 82.9171 24.7237L81.4428 23.3723ZM79.8447 24.9383C79.27 25.4211 78.7263 25.828 78.2136 26.1624L79.3062 27.8376C79.8975 27.452 80.5058 26.9949 81.1311 26.4697L79.8447 24.9383ZM78.7599 26H72.0639V28H78.7599V26ZM72.1879 26.0077C71.9895 25.9829 71.6163 25.8614 71.026 25.5435L70.0778 27.3045C70.7355 27.6586 71.3703 27.9211 71.9399 27.9923L72.1879 26.0077ZM71.026 25.5435C70.4445 25.2304 69.8323 24.8457 69.1891 24.3863L68.0267 26.0137C68.7275 26.5143 69.4113 26.9456 70.0778 27.3045L71.026 25.5435ZM69.2079 24.4C68.5735 23.9242 68.0281 23.4443 67.5673 22.9615L66.1206 24.3425C66.6678 24.9157 67.2983 25.4678 68.0079 26L69.2079 24.4ZM67.5824 22.9777C67.1197 22.471 66.9009 22.1006 66.8206 21.8598L64.9232 22.4922C65.131 23.1154 65.5601 23.729 66.1054 24.3263L67.5824 22.9777ZM66.8701 22.2363L67.8421 6.14429L65.8457 6.02371L64.8737 22.1157L66.8701 22.2363ZM67.7058 6.59102C67.9156 6.23441 68.223 5.79238 68.6394 5.26031L67.0644 4.02769C66.6168 4.59962 66.2522 5.11759 65.982 5.57698L67.7058 6.59102ZM68.636 5.2647C69.0676 4.71946 69.5339 4.19626 70.035 3.6951L68.6208 2.28089C68.066 2.83574 67.5482 3.41654 67.0679 4.0233L68.636 5.2647ZM70.0505 3.67922C70.5611 3.1455 71.0131 2.71734 71.4081 2.38822L70.1277 0.851777C69.6587 1.24265 69.1508 1.72649 68.6053 2.29678L70.0505 3.67922ZM70.9563 2.6021C72.6559 2.27615 74.2363 2.116 75.6999 2.116V0.115999C74.0916 0.115999 72.384 0.291848 70.5796 0.637896L70.9563 2.6021ZM75.7153 2.11588C77.1986 2.09306 78.5901 2.24151 79.8933 2.55608L80.3625 0.611917C78.8818 0.254486 77.3212 0.0909368 75.6845 0.116117L75.7153 2.11588ZM70.9655 24.2789L79.1015 22.9469L78.7783 20.9731L70.6423 22.3051L70.9655 24.2789ZM79.9171 22.1724C80.1665 21.025 80.3636 19.7394 80.5106 18.3189L78.5212 18.1131C78.3802 19.4766 78.1933 20.687 77.9627 21.7476L79.9171 22.1724ZM80.5087 18.3358C80.6811 16.9074 80.7793 15.4327 80.8038 13.9121L78.804 13.8799C78.7806 15.3353 78.6867 16.7406 78.5231 18.0962L80.5087 18.3358ZM80.8034 13.9277C80.8524 12.385 80.828 10.8993 80.7295 9.4712L78.7343 9.6088C78.8278 10.9647 78.8514 12.383 78.8044 13.8643L80.8034 13.9277ZM80.7306 9.48922C80.6565 8.03189 80.4951 6.71618 80.2411 5.54757L78.2867 5.97243C78.5127 7.01181 78.6633 8.2161 78.7332 9.59078L80.7306 9.48922ZM79.4829 4.78428C78.2186 4.50044 76.8541 4.37498 75.3947 4.40015L75.4291 6.39985C76.7537 6.37701 77.9573 6.49156 79.0449 6.73572L79.4829 4.78428ZM75.3944 4.40015C73.9434 4.42561 72.5778 4.62961 71.3032 5.0198L71.8886 6.9322C72.966 6.60239 74.1444 6.42239 75.4294 6.39985L75.3944 4.40015ZM70.6397 5.68328C70.2605 6.92194 69.9627 8.34399 69.7414 9.94285L71.7225 10.2172C71.9331 8.69601 72.2113 7.38206 72.5521 6.26871L70.6397 5.68328ZM69.7414 9.94285C69.5215 11.5305 69.363 13.165 69.2656 14.8461L71.2622 14.9619C71.3568 13.331 71.5103 11.7495 71.7225 10.2172L69.7414 9.94285ZM69.2649 14.8599C69.1914 16.5247 69.2034 18.1211 69.302 19.6484L71.2978 19.5196C71.2044 18.0709 71.1924 16.5473 71.2629 14.9481L69.2649 14.8599ZM69.302 19.6494C69.4003 21.1484 69.574 22.4438 69.8311 23.5236L71.7767 23.0604C71.5538 22.1242 71.3915 20.9476 71.2978 19.5186L69.302 19.6494ZM100.325 16.344L99.6954 15.5671L99.0544 16.0865L99.4427 16.8146L100.325 16.344ZM105.509 26.064L106.16 26.8233L106.769 26.3012L106.391 25.5934L105.509 26.064ZM103.745 27.576L103.569 28.5604L104.036 28.6438L104.396 28.3353L103.745 27.576ZM101.477 26.784L101.04 27.6835L101.477 26.784ZM99.281 25.236L98.3165 25.4998L98.3864 25.7556L98.5739 25.9431L99.281 25.236ZM96.977 16.812L97.9416 16.5482L97.7331 15.7857L96.943 15.8126L96.977 16.812ZM91.685 16.992L91.651 15.9926L90.685 16.0254V16.992H91.685ZM91.685 25.884L92.206 26.7376L92.685 26.4452V25.884H91.685ZM88.913 27.576L88.5767 28.5177L89.0264 28.6784L89.434 28.4296L88.913 27.576ZM86.573 25.956L85.581 25.83L85.5292 26.238L85.7794 26.5644L86.573 25.956ZM87.977 14.904L88.9691 15.03L88.9791 14.9508L88.9765 14.871L87.977 14.904ZM87.545 1.8L86.9773 0.976785L86.5276 1.28694L86.5456 1.83295L87.545 1.8ZM88.589 1.08L88.7305 0.0900492L88.3433 0.0347381L88.0213 0.256786L88.589 1.08ZM90.029 1.62L89.5818 2.51443L89.5885 2.51776L89.5952 2.521L90.029 1.62ZM91.649 2.592L91.0351 3.38135L91.5272 3.76408L92.0875 3.49077L91.649 2.592ZM94.745 1.512L94.5326 0.534813L94.5281 0.535813L94.745 1.512ZM97.913 1.08L97.8666 0.0810783L97.8655 0.0811308L97.913 1.08ZM100.613 1.26L101.099 0.385841L100.97 0.314494L100.827 0.283099L100.613 1.26ZM102.449 2.628L103.141 1.90601L103.141 1.90601L102.449 2.628ZM103.961 4.32L103.161 4.92L103.175 4.93878L103.19 4.95688L103.961 4.32ZM104.969 5.76L105.967 5.82486L105.985 5.54233L105.853 5.29211L104.969 5.76ZM104.501 12.96L105.131 13.7369L105.471 13.4615L105.499 13.0249L104.501 12.96ZM100.181 5.256L101.168 5.09593L101.053 4.38366L100.34 4.26876L100.181 5.256ZM97.625 5.148L97.65 6.14769L97.6625 6.14737L97.675 6.14675L97.625 5.148ZM94.709 5.472L94.5175 4.4905L94.5129 4.49142L94.709 5.472ZM91.973 6.336L91.5669 5.42219L90.992 5.67771L90.9735 6.3066L91.973 6.336ZM91.757 13.68L90.7575 13.6506L90.72 14.9253L91.9668 14.6577L91.757 13.68ZM100.145 11.88L100.355 12.8577L101.053 12.708L101.138 11.9991L100.145 11.88ZM100.361 8.352L99.3612 8.3316L99.361 8.3418V8.352H100.361ZM99.4427 16.8146L104.627 26.5346L106.391 25.5934L101.207 15.8734L99.4427 16.8146ZM104.858 25.3047L103.094 26.8167L104.396 28.3353L106.16 26.8233L104.858 25.3047ZM103.921 26.5916C103.366 26.4924 102.699 26.266 101.914 25.8845L101.04 27.6835C101.935 28.118 102.78 28.4196 103.569 28.5604L103.921 26.5916ZM101.914 25.8845C101.168 25.5223 100.529 25.0697 99.9881 24.5289L98.5739 25.9431C99.2811 26.6503 100.106 27.2297 101.04 27.6835L101.914 25.8845ZM100.246 24.9722L97.9416 16.5482L96.0125 17.0758L98.3165 25.4998L100.246 24.9722ZM96.943 15.8126L91.651 15.9926L91.719 17.9914L97.011 17.8114L96.943 15.8126ZM90.685 16.992V25.884H92.685V16.992H90.685ZM91.164 25.0304L88.392 26.7224L89.434 28.4296L92.206 26.7376L91.164 25.0304ZM89.2494 26.6343C88.3895 26.3272 87.7818 25.889 87.3666 25.3476L85.7794 26.5644C86.4683 27.463 87.4205 28.1048 88.5767 28.5177L89.2494 26.6343ZM87.5651 26.082L88.9691 15.03L86.985 14.778L85.581 25.83L87.5651 26.082ZM88.9765 14.871L88.5445 1.76705L86.5456 1.83295L86.9776 14.9369L88.9765 14.871ZM88.1128 2.62321L89.1568 1.90321L88.0213 0.256786L86.9773 0.976785L88.1128 2.62321ZM88.4476 2.06995C88.6153 2.0939 88.9747 2.21085 89.5818 2.51443L90.4762 0.725571C89.8354 0.405149 89.2348 0.162095 88.7305 0.0900492L88.4476 2.06995ZM89.5952 2.521C90.198 2.81125 90.6733 3.09994 91.0351 3.38135L92.263 1.80265C91.7608 1.41206 91.156 1.05274 90.4628 0.718997L89.5952 2.521ZM92.0875 3.49077C93.0002 3.04554 93.9578 2.71134 94.962 2.48819L94.5281 0.535813C93.3723 0.792657 92.2659 1.17846 91.2106 1.69323L92.0875 3.49077ZM94.9575 2.48918C96.0135 2.25959 97.0142 2.12393 97.9606 2.07887L97.8655 0.0811308C96.7959 0.132062 95.6845 0.284403 94.5326 0.534824L94.9575 2.48918ZM97.9595 2.07892C98.9298 2.03379 99.7386 2.09236 100.399 2.2369L100.827 0.283099C99.9515 0.0916329 98.9602 0.0302096 97.8666 0.0810789L97.9595 2.07892ZM100.127 2.13416C100.695 2.44945 101.238 2.85285 101.757 3.34999L103.141 1.90601C102.508 1.29914 101.827 0.790547 101.099 0.385841L100.127 2.13416ZM101.757 3.34999C102.298 3.86831 102.765 4.3919 103.161 4.92L104.761 3.72C104.293 3.09609 103.752 2.49169 103.141 1.90601L101.757 3.34999ZM103.19 4.95688C103.624 5.48177 103.913 5.9032 104.085 6.22789L105.853 5.29211C105.593 4.80079 105.21 4.26222 104.732 3.68312L103.19 4.95688ZM103.971 5.69514L103.503 12.8951L105.499 13.0249L105.967 5.82486L103.971 5.69514ZM103.871 12.1831L99.6954 15.5671L100.955 17.1209L105.131 13.7369L103.871 12.1831ZM100.34 4.26876C99.5113 4.13505 98.5869 4.09865 97.5751 4.14925L97.675 6.14675C98.5831 6.10134 99.3628 6.13695 100.022 6.24324L100.34 4.26876ZM97.6 4.14831C96.5817 4.17377 95.554 4.28827 94.5175 4.49051L94.9005 6.45349C95.832 6.27173 96.7483 6.17023 97.65 6.14769L97.6 4.14831ZM94.5129 4.49142C93.4832 4.69736 92.5006 5.00722 91.5669 5.42219L92.3792 7.24981C93.1735 6.89678 94.0148 6.63064 94.9051 6.45258L94.5129 4.49142ZM90.9735 6.3066L90.7575 13.6506L92.7566 13.7094L92.9726 6.3654L90.9735 6.3066ZM91.9668 14.6577L100.355 12.8577L99.9352 10.9023L91.5472 12.7023L91.9668 14.6577ZM101.138 11.9991C101.286 10.7615 101.361 9.54571 101.361 8.352H99.361C99.361 9.46229 99.2916 10.5985 99.1522 11.7609L101.138 11.9991ZM101.361 8.3724C101.386 7.15327 101.324 6.05851 101.168 5.09593L99.1939 5.41607C99.3258 6.22949 99.3844 7.19873 99.3612 8.3316L101.361 8.3724ZM127.684 6.084L127.587 7.07925L128.356 7.15441L128.623 6.4297L127.684 6.084ZM119.584 5.292L119.682 4.29674L118.619 4.19286L118.585 5.25987L119.584 5.292ZM119.26 15.372L118.261 15.3399L118.26 15.3605L118.261 15.3812L119.26 15.372ZM119.368 27.072L119.611 28.0421L120.376 27.851L120.368 27.0628L119.368 27.072ZM117.352 27.576L116.905 28.4704L117.236 28.6359L117.595 28.5461L117.352 27.576ZM115.444 26.316L114.796 27.0772L114.804 27.0843L114.813 27.0912L115.444 26.316ZM113.86 24.336L112.876 24.1594L112.815 24.4998L112.977 24.8052L113.86 24.336ZM115.552 14.904L116.537 15.0806L116.555 14.9778L116.552 14.8735L115.552 14.904ZM115.264 5.472L116.264 5.44148L116.23 4.31393L115.114 4.48334L115.264 5.472ZM109.576 6.336L109.037 7.17827L109.354 7.38119L109.727 7.32466L109.576 6.336ZM108.028 5.148L108.715 4.42099L108.715 4.42098L108.028 5.148ZM106.66 3.6L105.71 3.28869L105.546 3.79086L105.868 4.20971L106.66 3.6ZM107.344 1.512L107.372 0.512385L106.626 0.491669L106.394 1.20069L107.344 1.512ZM117.712 1.8L117.685 2.79961L117.736 2.80103L117.787 2.79724L117.712 1.8ZM125.452 1.224L126.019 0.399957L125.729 0.200648L125.378 0.226757L125.452 1.224ZM127.288 2.7L126.581 3.40711L126.591 3.41666L126.601 3.42595L127.288 2.7ZM128.44 4.032L129.379 4.3777L129.557 3.89334L129.266 3.46732L128.44 4.032ZM127.782 5.08875L119.682 4.29674L119.487 6.28725L127.587 7.07925L127.782 5.08875ZM118.585 5.25987L118.261 15.3399L120.26 15.4041L120.584 5.32412L118.585 5.25987ZM118.261 15.3812L118.369 27.0812L120.368 27.0628L120.26 15.3628L118.261 15.3812ZM119.126 26.1019L117.11 26.6059L117.595 28.5461L119.611 28.0421L119.126 26.1019ZM117.8 26.6816C117.253 26.4081 116.678 26.0312 116.076 25.5408L114.813 27.0912C115.507 27.6568 116.204 28.1199 116.905 28.4704L117.8 26.6816ZM116.093 25.5548C115.543 25.0863 115.094 24.526 114.744 23.8668L112.977 24.8052C113.443 25.682 114.05 26.4417 114.796 27.0772L116.093 25.5548ZM114.845 24.5126L116.537 15.0806L114.568 14.7274L112.876 24.1594L114.845 24.5126ZM116.552 14.8735L116.264 5.44148L114.265 5.50252L114.553 14.9345L116.552 14.8735ZM115.114 4.48334L109.426 5.34734L109.727 7.32466L115.415 6.46066L115.114 4.48334ZM110.116 5.49373C109.558 5.13703 109.094 4.77857 108.715 4.42099L107.342 5.87501C107.827 6.33343 108.395 6.76697 109.037 7.17827L110.116 5.49373ZM108.715 4.42098C108.331 4.05869 107.911 3.58502 107.453 2.99029L105.868 4.20971C106.37 4.86298 106.861 5.42131 107.342 5.87501L108.715 4.42098ZM107.611 3.91131L108.295 1.82331L106.394 1.20069L105.71 3.28869L107.611 3.91131ZM107.317 2.51161L117.685 2.79961L117.74 0.800384L107.372 0.512385L107.317 2.51161ZM117.787 2.79724L125.527 2.22124L125.378 0.226757L117.638 0.802756L117.787 2.79724ZM124.886 2.04804C125.624 2.55527 126.183 3.00868 126.581 3.40711L127.996 1.99289C127.482 1.47932 126.817 0.948728 126.019 0.399957L124.886 2.04804ZM126.601 3.42595C127.012 3.81572 127.348 4.20647 127.615 4.59668L129.266 3.46732C128.909 2.94553 128.477 2.44828 127.976 1.97405L126.601 3.42595ZM127.502 3.68629L126.746 5.73829L128.623 6.4297L129.379 4.3777L127.502 3.68629ZM135.325 27.072L135.56 28.0441L136.327 27.8588L136.325 27.0689L135.325 27.072ZM133.237 27.576L132.79 28.4704L133.116 28.6338L133.472 28.5481L133.237 27.576ZM131.329 26.316L130.68 27.0772L130.689 27.0843L130.697 27.0912L131.329 26.316ZM129.745 24.336L128.762 24.1522L128.698 24.4961L128.862 24.8052L129.745 24.336ZM131.509 14.904L132.492 15.0878L132.512 14.9803L132.508 14.871L131.509 14.904ZM131.077 1.8L130.509 0.976785L130.059 1.28694L130.077 1.83295L131.077 1.8ZM132.121 1.08L132.3 0.0961287L131.893 0.0222211L131.553 0.256786L132.121 1.08ZM133.201 1.476L132.773 2.37974L132.782 2.38391L132.791 2.38792L133.201 1.476ZM134.605 2.196L134.104 3.06143L134.104 3.06143L134.605 2.196ZM135.613 2.952L136.613 2.97808L136.623 2.57944L136.356 2.28303L135.613 2.952ZM135.289 15.372L134.289 15.3459L134.289 15.3605L134.289 15.3751L135.289 15.372ZM135.09 26.0999L133.002 26.6039L133.472 28.5481L135.56 28.0441L135.09 26.0999ZM133.684 26.6816C133.137 26.4081 132.562 26.0312 131.961 25.5408L130.697 27.0912C131.391 27.6568 132.089 28.1199 132.79 28.4704L133.684 26.6816ZM131.977 25.5548C131.427 25.0863 130.978 24.526 130.628 23.8668L128.862 24.8052C129.328 25.682 129.934 26.4417 130.68 27.0772L131.977 25.5548ZM130.728 24.5198L132.492 15.0878L130.526 14.7202L128.762 24.1522L130.728 24.5198ZM132.508 14.871L132.076 1.76705L130.077 1.83295L130.509 14.9369L132.508 14.871ZM131.645 2.62321L132.689 1.90321L131.553 0.256786L130.509 0.976785L131.645 2.62321ZM131.942 2.06387C132.075 2.08797 132.34 2.17449 132.773 2.37974L133.629 0.57226C133.15 0.345506 132.695 0.168023 132.3 0.0961287L131.942 2.06387ZM132.791 2.38792C133.24 2.58996 133.677 2.81444 134.104 3.06143L135.106 1.33057C134.621 1.04956 134.122 0.794039 133.611 0.564077L132.791 2.38792ZM134.104 3.06143C134.519 3.3017 134.754 3.49216 134.87 3.62096L136.356 2.28303C136.04 1.93183 135.603 1.61829 135.106 1.33057L134.104 3.06143ZM134.613 2.92592L134.289 15.3459L136.289 15.3981L136.613 2.97808L134.613 2.92592ZM134.289 15.3751L134.325 27.0751L136.325 27.0689L136.289 15.3689L134.289 15.3751ZM143.402 23.22L142.429 23.4516L142.652 24.3909L143.599 24.2003L143.402 23.22ZM154.49 20.988L155.387 20.5478L155.048 19.8555L154.292 20.0077L154.49 20.988ZM155.39 22.824L156.278 23.2826L156.509 22.8356L156.287 22.3838L155.39 22.824ZM153.77 25.092L154.5 25.7752L154.505 25.7694L154.511 25.7635L153.77 25.092ZM151.754 27V28H152.109L152.385 27.7752L151.754 27ZM144.698 27L144.574 27.9923L144.635 28H144.698V27ZM143.15 26.424L142.675 27.3045L142.682 27.3082L142.689 27.3118L143.15 26.424ZM141.206 25.2L140.606 26L140.615 26.007L140.624 26.0137L141.206 25.2ZM139.442 23.652L138.703 24.3263L138.711 24.3345L138.718 24.3425L139.442 23.652ZM138.47 22.176L137.471 22.1158L137.46 22.3088L137.521 22.4922L138.47 22.176ZM139.442 6.048L138.58 5.54098L138.458 5.74804L138.443 5.98784L139.442 6.048ZM140.45 4.608L139.666 3.98729L139.662 3.99169L140.45 4.608ZM141.926 2.952L142.633 3.65911L142.641 3.65125L142.648 3.64322L141.926 2.952ZM143.366 1.584L143.177 0.601897L142.924 0.650518L142.725 0.815777L143.366 1.584ZM153.914 1.872L154.594 1.1392L154.424 0.981438L154.202 0.914535L153.914 1.872ZM154.922 3.096L154.09 3.6507L154.096 3.66015L154.102 3.66946L154.922 3.096ZM155.714 4.392L156.709 4.48681L156.736 4.2013L156.608 3.94479L155.714 4.392ZM155.21 9.684L155.542 10.627L156.145 10.4145L156.205 9.77881L155.21 9.684ZM153.59 9.936V10.936H153.607L153.625 10.9354L153.59 9.936ZM151.862 9.792L150.868 9.9033L150.949 10.6293L151.665 10.7726L151.862 9.792ZM151.358 5.292L152.351 5.18069L152.26 4.36232L151.439 4.29531L151.358 5.292ZM147.722 5.256L147.761 6.25523L147.77 6.25487L147.779 6.25434L147.722 5.256ZM144.23 5.832L143.938 4.87533L143.433 5.02922L143.275 5.53372L144.23 5.832ZM143.33 9.9L142.341 9.74794L142.34 9.75539L142.339 9.76285L143.33 9.9ZM142.898 14.76L143.897 14.8034L143.897 14.8028L142.898 14.76ZM142.898 19.476L141.899 19.5243L141.899 19.5324L141.9 19.5404L142.898 19.476ZM143.599 24.2003L154.687 21.9683L154.292 20.0077L143.204 22.2397L143.599 24.2003ZM153.592 21.4282L154.492 23.2642L156.287 22.3838L155.387 20.5478L153.592 21.4282ZM154.501 22.3654C154.165 23.0166 153.68 23.7022 153.029 24.4205L154.511 25.7635C155.252 24.9458 155.846 24.1194 156.278 23.2826L154.501 22.3654ZM153.039 24.4088C152.368 25.1268 151.728 25.7306 151.122 26.2248L152.385 27.7752C153.075 27.2134 153.779 26.5452 154.5 25.7752L153.039 24.4088ZM151.754 26H144.698V28H151.754V26ZM144.822 26.0077C144.617 25.9822 144.229 25.8572 143.61 25.5362L142.689 27.3118C143.366 27.6628 144.01 27.9218 144.574 27.9923L144.822 26.0077ZM143.624 25.5435C143.042 25.2304 142.43 24.8457 141.787 24.3863L140.624 26.0137C141.325 26.5143 142.009 26.9456 142.675 27.3045L143.624 25.5435ZM141.806 24.4C141.171 23.9242 140.626 23.4443 140.165 22.9615L138.718 24.3425C139.265 24.9157 139.896 25.4678 140.606 26L141.806 24.4ZM140.18 22.9777C139.717 22.471 139.499 22.1006 139.418 21.8598L137.521 22.4922C137.729 23.1154 138.158 23.729 138.703 24.3263L140.18 22.9777ZM139.468 22.2362L140.44 6.10816L138.443 5.98784L137.471 22.1158L139.468 22.2362ZM140.303 6.55502C140.513 6.19841 140.821 5.75638 141.237 5.22431L139.662 3.99169C139.214 4.56362 138.85 5.08159 138.58 5.54098L140.303 6.55502ZM141.234 5.2287C141.665 4.68346 142.132 4.16026 142.633 3.65911L141.218 2.24489C140.664 2.79974 140.146 3.38054 139.666 3.9873L141.234 5.2287ZM142.648 3.64322C143.159 3.1095 143.611 2.68134 144.006 2.35222L142.725 0.815777C142.256 1.20665 141.748 1.69049 141.203 2.26078L142.648 3.64322ZM143.554 2.5661C145.245 2.24179 146.934 2.08 148.622 2.08V0.079999C146.805 0.079999 144.99 0.254209 143.177 0.601897L143.554 2.5661ZM148.622 2.08C150.297 2.08 151.964 2.32881 153.625 2.82946L154.202 0.914535C152.359 0.359192 150.498 0.079999 148.622 0.079999V2.08ZM153.233 2.60479C153.497 2.84971 153.784 3.19234 154.09 3.6507L155.754 2.5413C155.387 1.99166 155.002 1.51828 154.594 1.1392L153.233 2.60479ZM154.102 3.66946C154.42 4.12268 154.655 4.51162 154.819 4.83921L156.608 3.94479C156.388 3.50438 156.096 3.02931 155.741 2.52254L154.102 3.66946ZM154.718 4.29719L154.214 9.58919L156.205 9.77881L156.709 4.48681L154.718 4.29719ZM154.877 8.74101C154.602 8.83799 154.174 8.91448 153.554 8.93664L153.625 10.9354C154.349 10.9095 155.001 10.818 155.542 10.627L154.877 8.74101ZM153.59 8.936C152.961 8.936 152.454 8.89074 152.058 8.81142L151.665 10.7726C152.229 10.8853 152.874 10.936 153.59 10.936V8.936ZM152.855 9.6807L152.351 5.18069L150.364 5.4033L150.868 9.9033L152.855 9.6807ZM151.439 4.29531C150.214 4.19532 148.956 4.18314 147.664 4.25766L147.779 6.25434C148.984 6.18485 150.149 6.19667 151.276 6.28868L151.439 4.29531ZM147.682 4.25677C146.378 4.30791 145.129 4.51294 143.938 4.87533L144.521 6.78867C145.538 6.47906 146.617 6.30008 147.761 6.25523L147.682 4.25677ZM143.275 5.53372C142.896 6.7455 142.587 8.15257 142.341 9.74794L144.318 10.0521C144.552 8.52743 144.843 7.2225 145.184 6.13028L143.275 5.53372ZM142.339 9.76285C142.118 11.3562 141.972 13.0077 141.898 14.7172L143.897 14.8028C143.967 13.1523 144.109 11.5638 144.32 10.0372L142.339 9.76285ZM141.899 14.7166C141.825 16.3998 141.825 18.0026 141.899 19.5243L143.896 19.4277C143.826 17.9734 143.826 16.4322 143.897 14.8034L141.899 14.7166ZM141.9 19.5404C141.998 21.0625 142.171 22.3706 142.429 23.4516L144.374 22.9884C144.152 22.0534 143.989 20.8655 143.895 19.4116L141.9 19.5404Z" fill="black"/>
</g>
<defs>
<filter id="filter0_d_7_9" x="0.828003" y="0.432007" width="158.886" height="35.144" filterUnits="userSpaceOnUse" color-interpolation-filters="sRGB">
<feFlood flood-opacity="0" result="BackgroundImageFix"/>
<feColorMatrix in="SourceAlpha" type="matrix" values="0 0 0 0 0 0 0 0 0 0 0 0 0 0 0 0 0 0 127 0" result="hardAlpha"/>
<feOffset dy="4"/>
<feGaussianBlur stdDeviation="2"/>
<feComposite in2="hardAlpha" operator="out"/>
<feColorMatrix type="matrix" values="0 0 0 0 0 0 0 0 0 0 0 0 0 0 0 0 0 0 0.25 0"/>
<feBlend mode="normal" in2="BackgroundImageFix" result="effect1_dropShadow_7_9"/>
<feBlend mode="normal" in="SourceGraphic" in2="effect1_dropShadow_7_9" result="shape"/>
</filter>
</defs>
</svg>
